<svg xmlns="http://www.w3.org/2000/svg" width="84.79" height="91" viewBox="0 0 84.79 91"><defs><style>.a{fill:#3ba632;stroke:#3ba632;}</style></defs><g transform="translate(-17.346 -15)"><path class="a" d="M83.546,103.61H19.826V98.12a3.418,3.418,0,0,1,3.42-3.42h58.59a.99.99,0,1,0,0-1.98H24.776V28.19h57.78V50.51a1,1,0,0,0,.99.99.986.986,0,0,0,.99-.9V28.144A5.278,5.278,0,0,0,89.4,22.97V16.49a1,1,0,0,0-.99-.99H18.836a.925.925,0,0,0-.9.99v6.39a5.306,5.306,0,0,0,4.86,5.264V92.757a5.3,5.3,0,0,0-4.95,5.273v6.48a1,1,0,0,0,.99.99h64.71a.986.986,0,0,0,.99-.9A1,1,0,0,0,83.546,103.61ZM19.826,22.88V17.39h67.68v5.49a3.418,3.418,0,0,1-3.42,3.42H23.246A3.418,3.418,0,0,1,19.826,22.88Z" transform="translate(0 0)"/><path class="a" d="M85.637,45.359a2.851,2.851,0,0,0-2.07-.81l-13.23.09a2.93,2.93,0,0,0-2.07.9,2.851,2.851,0,0,0-.81,2.07v1.17a2.93,2.93,0,0,0,.9,2.07,2.3,2.3,0,0,0,1.08.72l.18,37.62a7.5,7.5,0,0,0,2.25,5.31,7.806,7.806,0,0,0,5.31,2.16,7.511,7.511,0,0,0,7.56-7.65l-.18-37.62a3.009,3.009,0,0,0,1.98-2.79v-1.17A2.93,2.93,0,0,0,85.637,45.359Zm-.99,3.33a1,1,0,0,1-.99.99h-.99l.18,39.33a5.516,5.516,0,0,1-5.58,5.67,5.584,5.584,0,0,1-3.96-1.62A5.521,5.521,0,0,1,71.6,89.1l-.171-37.44h3.861a.99.99,0,1,0,0-1.98h-4.77a.948.948,0,0,0-.263.055.988.988,0,0,1-.817-.955v-1.17a.929.929,0,0,1,.99-.99l13.23-.09a.929.929,0,0,1,.99.99Z" transform="translate(15.099 8.841)"/><path class="a" d="M49.663,61.971a24.148,24.148,0,0,0,3.382-8.517,20.618,20.618,0,0,1,9.848-11.823.946.946,0,1,0-.81-1.71,20.9,20.9,0,0,0-8.853,8.464,14.225,14.225,0,0,0-1.047-4.054c-2.61-6.12-9.63-10.17-20.88-12.06a.978.978,0,0,0-1.08.63c-.18.54-4.32,12.69,1.53,21.42,3.24,4.86,9,7.56,17.1,8.1a.542.542,0,0,0,.137-.013A.811.811,0,0,0,49.663,61.971Zm-16.38-8.64c-4.5-6.75-2.34-16.2-1.53-18.99q15.12,2.7,18.63,10.8c2.333,5.345.073,11.183-1.362,14.06a68.534,68.534,0,0,0-9.078-15.5.963.963,0,1,0-1.53,1.17A65.966,65.966,0,0,1,47.47,60.436C40.815,59.769,36.045,57.388,33.283,53.331Z" transform="translate(3.283 5.099)"/><path class="a" d="M64.037,54.054c6.12-9.81,1.8-23.58,1.62-24.12a.829.829,0,0,0-.99-.63c-10.44,1.35-16.47,5.4-19.71,8.46a.955.955,0,0,0,1.35,1.35c2.88-2.88,8.37-6.48,17.82-7.83.72,2.97,3.15,14.04-1.71,21.78-2.79,4.41-7.38,7.11-13.86,8.01a.93.93,0,0,0-.81,1.08.888.888,0,0,0,.9.81h.18C55.847,61.974,60.977,58.914,64.037,54.054Z" transform="translate(8.169 4.196)"/><path class="a" d="M53.2,75.812c-.073-4.153-3.33-7.243-4.663-8.365a12.449,12.449,0,0,0-.2-10.985.927.927,0,1,0-1.62.9,10.063,10.063,0,0,1,.661,1.7,9.044,9.044,0,0,0-6.961,5.774,1,1,0,0,0,.54,1.26.541.541,0,0,0,.36.09,1.084,1.084,0,0,0,.9-.63c1.491-3.728,4.207-4.495,5.533-4.646a10.9,10.9,0,0,1-1.115,6.258l-.008.008a.984.984,0,0,0-.157.305,9.811,9.811,0,0,1-.743,1.135,19.706,19.706,0,0,1-1.89,2.07,12.236,12.236,0,0,0-3.42,4.77.914.914,0,0,0,.63,1.17.331.331,0,0,0,.27.09.727.727,0,0,0,.81-.63,11.486,11.486,0,0,1,2.97-4.05,24.524,24.524,0,0,0,2.07-2.25c.151-.2.267-.416.406-.621,1.244,1.119,3.578,3.617,3.644,6.651a1.058,1.058,0,0,0,.99.9A.986.986,0,0,0,53.2,75.812Z" transform="translate(6.854 12.318)"/></g></svg>