<svg xmlns="http://www.w3.org/2000/svg" width="96.244" height="91" viewBox="0 0 96.244 91"><defs><style>.a{fill:#3ba632;stroke:#3ba632;}</style></defs><g transform="translate(-15 -16.932)"><path class="a" d="M58.5,70.728a.955.955,0,0,0-.953.953V85.22L41.814,94.277,29.755,87.31a5.236,5.236,0,0,0,.332-1.614,4.981,4.981,0,0,0-3.909-4.836V67.01l15.683-9.041,11.87,6.848a.859.859,0,0,0,.477.1,1.517,1.517,0,0,0,.953-.477A.965.965,0,0,0,54.78,63.1L42.862,56.237V38.027L58.593,28.97l6.674,3.814a.982.982,0,0,0,.953-1.716l-7.15-4.1a.866.866,0,0,0-.953,0L41.811,36.325l-8.56-4.868a4.369,4.369,0,0,0,.173-1.152,4.386,4.386,0,1,0-8.771,0,4.374,4.374,0,0,0,7.673,2.884l8.535,4.854V56.28L25.2,65.265,21.91,63.19a3.182,3.182,0,0,0,.073-.66,3.3,3.3,0,1,0-1.031,2.339L24.176,66.9V80.837a4.955,4.955,0,0,0,.953,9.817A4.851,4.851,0,0,0,28.751,89l12.586,7.282a1.239,1.239,0,0,0,.953,0L58.975,86.65a1,1,0,0,0,.477-.858V71.682A.955.955,0,0,0,58.5,70.728ZM29.038,32.783A2.479,2.479,0,1,1,31.517,30.3,2.524,2.524,0,0,1,29.038,32.783Zm-10.3,31.081a1.335,1.335,0,1,1,1.335-1.335A1.3,1.3,0,0,1,18.742,63.864Zm6.388,24.788A2.956,2.956,0,1,1,28.085,85.7a2.909,2.909,0,0,1-.381,1.416,1.2,1.2,0,0,0-.1.109.819.819,0,0,0-.05.145A2.964,2.964,0,0,1,25.129,88.652Z" transform="translate(0 3.24)"/><path class="a" d="M25.008,76.977a7.548,7.548,0,0,1-7.532-7.532.953.953,0,1,0-1.907,0A9.562,9.562,0,0,0,25.1,78.979a.866.866,0,0,0,.858-1.049A.955.955,0,0,0,25.008,76.977Z" transform="translate(0.026 19.491)"/><path class="a" d="M92.093,98.851H90.949A6.875,6.875,0,0,0,84.18,92.94h-.572V80.26h-.087a7.4,7.4,0,0,0-14.656-.423,22.281,22.281,0,0,1-.225-44.525v18.92a2.157,2.157,0,0,0,2.193,2.193h.381v2.1A2.524,2.524,0,0,0,73.693,61h5.053a2.606,2.606,0,0,0,2.574-2.479v-2.1h.1a2.239,2.239,0,0,0,2.193-2.288V24.2a2.157,2.157,0,0,0-2.193-2.193h-.286v-2.1a2.524,2.524,0,0,0-2.479-2.479H73.6a2.524,2.524,0,0,0-2.479,2.479v2.1h-.286A2.157,2.157,0,0,0,68.64,24.2v9.206a24.28,24.28,0,0,0,.1,48.521V92.94h-.477a6.875,6.875,0,0,0-6.769,5.911H60.155a7.243,7.243,0,0,0-7.246,7.246v1.335h46.43V106.1A7.243,7.243,0,0,0,92.093,98.851ZM79.222,58.523a.615.615,0,0,1-.572.572H73.6a.615.615,0,0,1-.572-.572v-2.1h6.2Zm-6.2-38.612a.615.615,0,0,1,.572-.572H78.65a.615.615,0,0,1,.572.572v2.1h-6.2ZM70.642,24.2a.205.205,0,0,1,.191-.191H81.415a.205.205,0,0,1,.191.191V54.138a.205.205,0,0,1-.191.191H70.833a.205.205,0,0,1-.191-.191Zm5.53,51.292a5.53,5.53,0,1,1-5.53,5.53A5.534,5.534,0,0,1,76.171,75.493Zm-5.53,10.548A7.333,7.333,0,0,0,81.7,86.035V92.94H70.642ZM54.911,105.525a5.349,5.349,0,0,1,5.244-4.767H63.4V99.8a4.924,4.924,0,0,1,4.958-4.958H84.18A4.924,4.924,0,0,1,89.138,99.8v.953h2.956a5.371,5.371,0,0,1,5.339,4.767Z" transform="translate(11.405)"/><path class="a" d="M58.073,54.817a.955.955,0,0,0,.953.953h24.6a1.039,1.039,0,0,0,1.049-.953.955.955,0,0,0-.953-.953H59.026A.955.955,0,0,0,58.073,54.817Z" transform="translate(16.251 13.907)"/></g></svg>