<svg xmlns="http://www.w3.org/2000/svg" width="85.548" height="101.697" viewBox="0 0 85.548 101.697"><defs><style>.a{fill:#3ba632;stroke:#3ba632;}</style></defs><g transform="translate(-20.313 -15)"><path class="a" d="M83.218,73.3l-1.8-14.5v-.1a11.871,11.871,0,0,0-4.2-7.1,10.058,10.058,0,0,0-4.2-2.2l-1.9-.5a.886.886,0,0,0-.5,1.7l1.9.6a7.357,7.357,0,0,1,3.5,1.8,10.979,10.979,0,0,1,3.6,6l1.8,14.5a2.783,2.783,0,0,1-.7,2.3,2.865,2.865,0,0,1-2.2,1h-5.7a.9.9,0,1,0,0,1.8h5.7a4.475,4.475,0,0,0,3.5-1.6A4.531,4.531,0,0,0,83.218,73.3Z" transform="translate(22.095 14.996)"/><path class="a" d="M56.489,22.991h2.1v2.1a.9.9,0,0,0,.9.9.882.882,0,0,0,.9-.8v-2.2h2.2a.9.9,0,0,0,0-1.8h-2.2v-2.1a.9.9,0,1,0-1.8,0v2.1h-2.1a.9.9,0,1,0,0,1.8Z" transform="translate(15.624 1.209)"/><path class="a" d="M46.379,53.2h.2a.8.8,0,0,0,.6-1.1c-1.2-3.7-1.5-6.1-.8-7.2a1.6,1.6,0,0,1,1.025-.706A4.877,4.877,0,0,0,50.579,48.3a17.777,17.777,0,0,0,3.6,6.8.908.908,0,0,0,.7.3,1.421,1.421,0,0,0,.6-.2.942.942,0,0,0,.1-1.3,16.6,16.6,0,0,1-3.4-6.6l-.2-.6-.6-.1c-1.3-.1-2.3-1.7-2.3-3.7,0-1.712.728-3.228,1.83-3.632a.8.8,0,0,0,.316-.133.886.886,0,0,0,.454-1.035v0a22.853,22.853,0,0,1,.694-5.491.877.877,0,0,0,.093-.332c.029-.107.058-.214.09-.323a.766.766,0,0,0,.125-.151,4.2,4.2,0,0,1,2.4-2.1c1.5-.5,3.3-.3,5.5.7.6.3,1.1.5,1.7.8a21.7,21.7,0,0,0,6.9,2.4,16.95,16.95,0,0,0,2.2.1,13.746,13.746,0,0,0,5.641-1.154A22.894,22.894,0,0,1,77.78,38.1h0a.784.784,0,0,0,.332.984.874.874,0,0,0,.474.2c1.094.423,1.894,1.926,1.894,3.619,0,2-1,3.6-2.3,3.7l-.6.1-.2.6a16.6,16.6,0,0,1-3.4,6.6.935.935,0,0,0,.1,1.3,1.421,1.421,0,0,0,.6.2.779.779,0,0,0,.7-.3,17.777,17.777,0,0,0,3.6-6.8,5.122,5.122,0,0,0,3.167-4.107,1.6,1.6,0,0,1,1.033.707c.7,1.1.4,3.5-.8,7.2-1.9,5.5-4.7,13.4-8.6,18.8a.83.83,0,0,0,.2,1.2.764.764,0,0,0,.5.2.755.755,0,0,0,.7-.4c4-5.6,6.9-13.7,8.8-19.3,1.5-4.4,1.7-7.1.7-8.7a3.652,3.652,0,0,0-2.433-1.516,5.39,5.39,0,0,0-2.675-4.63,24.9,24.9,0,0,0-1.022-6.3.868.868,0,0,0,.03-.151V20.7a5.164,5.164,0,0,0-5.2-5.2h-17.5a5.164,5.164,0,0,0-5.2,5.2V32.075a25.649,25.649,0,0,0-.8,5.729,5.647,5.647,0,0,0-2.567,4.562A3.481,3.481,0,0,0,44.879,43.9c-1,1.6-.8,4.3.7,8.7A.76.76,0,0,0,46.379,53.2Zm9.5-35.9h17.5a3.372,3.372,0,0,1,3.4,3.4v9.965a13.917,13.917,0,0,1-7.5,1.135,18.228,18.228,0,0,1-6.3-2.2c-.5-.2-1.1-.5-1.7-.8-2.6-1.2-4.9-1.5-6.8-.8a6.794,6.794,0,0,0-2,1.238V20.7A3.372,3.372,0,0,1,55.879,17.3Z" transform="translate(10.534 0)"/><path class="a" d="M77.776,62.014a4.7,4.7,0,1,0-5.68,4.6,7.141,7.141,0,0,1-7.12,6.4.9.9,0,1,0,0,1.8,9.1,9.1,0,0,0,8.958-8.186A4.69,4.69,0,0,0,77.776,62.014Zm-7.6,0a2.9,2.9,0,1,1,2.9,2.9A2.9,2.9,0,0,1,70.176,62.014Z" transform="translate(19.437 18.786)"/><path class="a" d="M80.913,44.852a4.234,4.234,0,0,0-3-1.2l-52.8.2a4.268,4.268,0,0,0-4.3,4.3l.2,33a4.335,4.335,0,0,0,1.3,3,4.234,4.234,0,0,0,3,1.2l10.8-.1a.9.9,0,0,0,0-1.8l-10.8.1a2.086,2.086,0,0,1-1.8-.7,2.875,2.875,0,0,1-.7-1.8l-.2-32.9a2.476,2.476,0,0,1,2.5-2.5l52.8-.3a2.476,2.476,0,0,1,2.5,2.5l.2,33a2.41,2.41,0,0,1-.7,1.8,2.875,2.875,0,0,1-1.8.7l-10.7.1a.9.9,0,1,0,0,1.8l10.8-.1a4.335,4.335,0,0,0,3-1.3,4.471,4.471,0,0,0,1.2-3.1l-.2-32.9A4.335,4.335,0,0,0,80.913,44.852Z" transform="translate(0 12.648)"/><path class="a" d="M58.569,74.952a10.584,10.584,0,0,0-10.6-10.6h-.1A10.577,10.577,0,0,0,37.517,77.206l-8.148,8.246h8.1v8.1l8.307-8.209a10.555,10.555,0,0,0,4.349-.036l8.243,8.145.1-8.2h8.1L58.315,77.1A10.81,10.81,0,0,0,58.569,74.952Zm-19.3,14.4v-5.6h-5.6l4.486-4.57A10.5,10.5,0,0,0,43.8,84.74Zm8.5-5.5a8.708,8.708,0,0,1-6.2-2.6,8.378,8.378,0,0,1-2.6-6.2,8.877,8.877,0,0,1,8.9-8.9,8.881,8.881,0,0,1,8.7,8.8A8.835,8.835,0,0,1,47.769,83.852Zm14.5-.3h-5.6v5.6L52.1,84.669a10.808,10.808,0,0,0,5.583-5.616Z" transform="translate(3.844 21.948)"/><path class="a" d="M33.65,57.144l25.4-.1a.9.9,0,1,0,0-1.8l-25.4.1a.9.9,0,1,0,0,1.8Z" transform="translate(5.363 17.856)"/><path class="a" d="M65.745,52a.9.9,0,0,0-.9-.9l-34.3.2a.9.9,0,1,0,0,1.8l34.3-.2A.9.9,0,0,0,65.745,52Z" transform="translate(3.968 15.996)"/></g></svg>